<svg width="80" height="80" viewBox="0 0 80 80" fill="none" xmlns="http://www.w3.org/2000/svg">
<circle opacity="0.1" cx="40" cy="40" r="40" fill="white"/>
<path d="M52.3741 27.6364C50.752 25.9982 48.8222 24.6967 46.6956 23.8066C44.5689 22.9166 42.2874 22.4554 39.982 22.4498C37.6767 22.4441 35.3929 22.894 33.2619 23.7736C31.1309 24.6532 29.1947 25.9452 27.5646 27.5753C25.9344 29.2055 24.6425 31.1417 23.7628 33.2727C22.8832 35.4036 22.4333 37.6874 22.439 39.9928C22.4447 42.2982 22.9058 44.5797 23.7959 46.7063C24.686 48.8329 25.9875 50.7627 27.6257 52.3848C29.2478 54.023 31.1776 55.3245 33.3042 56.2146C35.4308 57.1047 37.7123 57.5658 40.0177 57.5715C42.3231 57.5772 44.6069 57.1273 46.7378 56.2477C48.8688 55.3681 50.805 54.0761 52.4352 52.4459C54.0653 50.8158 55.3573 48.8796 56.2369 46.7486C57.1165 44.6176 57.5664 42.3338 57.5607 40.0285C57.5551 37.7231 57.0939 35.4416 56.2038 33.3149C55.3138 31.1883 54.0122 29.2585 52.3741 27.6364ZM24.9999 40.0106C24.9993 38.6831 25.1753 37.3613 25.5233 36.0802C26.0968 37.3145 26.9296 38.3809 27.496 39.6473C28.228 41.2755 30.1936 40.8239 31.0616 42.2505C31.8319 43.5169 31.0093 45.1184 31.5858 46.4434C32.0046 47.4052 32.9921 47.6153 33.6733 48.3184C34.3694 49.0278 34.3546 49.9997 34.4608 50.9247C34.5807 52.0115 34.7752 53.0888 35.0428 54.1489C35.0428 54.1567 35.0428 54.1653 35.0491 54.1731C29.203 52.12 24.9999 46.5473 24.9999 40.0106ZM39.9999 55.0106C39.1622 55.0104 38.3259 54.9403 37.4999 54.8013C37.5085 54.5895 37.5124 54.3919 37.5335 54.2544C37.7233 53.0122 38.3452 51.7973 39.1842 50.8677C40.0132 49.9505 41.1491 49.3302 41.8491 48.2895C42.535 47.2739 42.7405 45.9067 42.4577 44.72C42.0413 42.9669 39.6592 42.3817 38.3749 41.4309C37.6366 40.8841 36.9796 40.0387 36.01 39.97C35.5632 39.9387 35.1889 40.0348 34.746 39.9208C34.3397 39.8153 34.021 39.5966 33.5882 39.6536C32.7796 39.7598 32.2694 40.6239 31.4007 40.5067C30.5764 40.3966 29.7272 39.4317 29.5397 38.6466C29.2991 37.6372 30.0975 37.3098 30.953 37.22C31.31 37.1825 31.7108 37.1419 32.0538 37.2731C32.5053 37.4403 32.7186 37.8825 33.1241 38.1059C33.8843 38.5231 34.0382 37.8567 33.9218 37.1817C33.7475 36.1708 33.5444 35.7591 34.446 35.063C35.071 34.5833 35.6053 34.2364 35.5053 33.3747C35.446 32.8684 35.1686 32.6395 35.4272 32.1356C35.6233 31.752 36.1616 31.4059 36.5124 31.177C37.4178 30.5864 40.3913 30.6302 39.1764 28.977C38.8194 28.4919 38.1608 27.6247 37.5358 27.5059C36.7546 27.3583 36.4077 28.2302 35.8632 28.6145C35.3007 29.0122 34.2053 29.4637 33.6421 28.8489C32.8842 28.0216 34.1444 27.7505 34.4233 27.1723C34.5522 26.9028 34.4233 26.5286 34.2061 26.1762C34.4879 26.0575 34.7744 25.9473 35.0655 25.8458C35.248 25.9805 35.4644 26.0617 35.6905 26.0802C36.2132 26.1145 36.7061 25.8317 37.1624 26.188C37.6686 26.5786 38.0335 27.0723 38.7053 27.1942C39.3553 27.3122 40.0436 26.9333 40.2046 26.2677C40.3022 25.863 40.2046 25.4356 40.1108 25.0177C43.0327 25.0345 45.8852 25.9095 48.3139 27.5341C48.1577 27.4747 47.971 27.4817 47.7405 27.5887C47.2663 27.8091 46.5944 28.37 46.5389 28.9262C46.4757 29.5575 47.4069 29.6466 47.8491 29.6466C48.5132 29.6466 49.1858 29.3497 48.9717 28.5825C48.8788 28.2497 48.7522 27.9036 48.5483 27.6942C49.0385 28.0343 49.508 28.4032 49.9546 28.7989C49.9475 28.8059 49.9405 28.8122 49.9335 28.82C49.4835 29.2887 48.9608 29.6598 48.653 30.2302C48.4358 30.6317 48.1913 30.8223 47.7514 30.9262C47.5092 30.9833 47.2327 31.0044 47.0296 31.1669C46.4639 31.6122 46.7858 32.6825 47.3217 33.0036C47.9991 33.4091 49.0038 33.2184 49.5147 32.6395C49.9139 32.1864 50.1491 31.3997 50.8671 31.4005C51.1831 31.3998 51.4868 31.5236 51.7124 31.745C52.0092 32.0528 51.9507 32.3403 52.0139 32.7247C52.1257 33.4075 52.728 33.0372 53.0944 32.6927C53.3615 33.168 53.6025 33.6575 53.8163 34.1591C53.4132 34.7395 53.0928 35.3723 52.1233 34.6958C51.5428 34.2903 51.1858 33.702 50.4569 33.5192C49.8202 33.363 49.1678 33.5255 48.5389 33.6341C47.8241 33.7583 46.9764 33.813 46.4342 34.3544C45.91 34.8762 45.6327 35.5747 45.0749 36.0989C43.996 37.1145 43.5405 38.2231 44.2389 39.6591C44.9108 41.0395 46.3163 41.7887 47.8327 41.6903C49.3225 41.5911 50.8702 40.727 50.8272 42.8919C50.8116 43.6583 50.9717 44.1888 51.2069 44.9005C51.4249 45.5567 51.41 46.1927 51.46 46.87C51.5076 47.6632 51.6316 48.4499 51.8303 49.2192C50.43 51.0222 48.6362 52.4812 46.5858 53.485C44.5354 54.4887 42.2827 55.0105 39.9999 55.0106Z" fill="#3671E9"/>
</svg>
