<svg width="80" height="80" viewBox="0 0 80 80" fill="none" xmlns="http://www.w3.org/2000/svg">
<circle opacity="0.1" cx="40" cy="40" r="40" fill="white"/>
<path d="M45.9876 25.0453C44.4673 23.4039 42.3438 22.5 40.0001 22.5C37.6438 22.5 35.5134 23.3984 34.0001 25.0297C32.4704 26.6789 31.7251 28.9203 31.9001 31.3406C32.247 36.1156 35.8805 40 40.0001 40C44.1196 40 47.747 36.1164 48.0993 31.3422C48.2767 28.9437 47.5267 26.707 45.9876 25.0453Z" fill="#3671E9"/>
<path d="M53.75 57.5H26.25C25.89 57.5047 25.5335 57.4291 25.2065 57.2786C24.8794 57.1282 24.59 56.9068 24.3593 56.6305C23.8515 56.0234 23.6468 55.1945 23.7984 54.3562C24.4578 50.6984 26.5156 47.6258 29.75 45.4687C32.6234 43.5539 36.2632 42.5 40 42.5C43.7367 42.5 47.3765 43.5547 50.25 45.4687C53.4843 47.625 55.5421 50.6977 56.2015 54.3555C56.3531 55.1937 56.1484 56.0227 55.6406 56.6297C55.41 56.9062 55.1206 57.1277 54.7935 57.2783C54.4665 57.4288 54.11 57.5046 53.75 57.5Z" fill="#3671E9"/>
</svg>
